<?xml version="1.0"?><svg width="640" height="480" xmlns="http://www.w3.org/2000/svg">
 <title>woman icon</title>
 <g>
  <title>Layer 1</title>
  <path fill="black" d="m740.373047,444.204468l-32.953857,213c-5.991638,36 -8.987427,75 -18.97345,110c-14.979004,17 -48.931458,36 -69.9021,43l0,6c3.994446,-1 9.986023,-2 15.977661,-2c11.983215,0 23.966431,3 31.9552,10c-7.98877,11 -15.9776,21 -19.971985,35c-9.986023,41 1.997192,91 -23.966431,127.000061c-13.980469,20 -33.952454,31 -54.923096,31c-20.970642,0 -40.942688,-11 -54.923096,-31c-25.963654,-36.000061 -13.980438,-86.000061 -23.966461,-127.000061c-3.994385,-14 -11.983215,-24 -19.972015,-35c7.9888,-7 19.972015,-10 31.955231,-10c5.991608,0 11.983246,1 15.977631,2l0,-6c-20.970612,-7 -54.923065,-26 -69.9021,-43c-9.986023,-35 -12.981812,-74 -18.973419,-110l-32.953857,-213l1.997223,-6l33.952423,0l46.934265,230l2.995819,0l28.959442,-104l-80.886719,-195l45.935669,0l5.991608,-7l0,-366.999998l3.994415,-7l39.944061,0l1.997192,4l31.955261,371.999998l5.991577,5l5.991638,0l5.991638,-5l31.9552,-371.999998l1.997253,-4l39.944031,0l3.994385,7l0,366.999998l5.991638,7l45.935669,0l-80.886719,195l28.959412,104l2.99585,0l46.934265,-230l33.952454,0l1.997192,6z" transform="matrix(0.6782229963673352,0,0,-0.6782229963673352,-76.00000119209288,702.0000000000001) "/>
 </g>
</svg>